<?xml version="1.0" encoding="utf-8"?>
<!-- Generator: Adobe Illustrator 16.0.3, SVG Export Plug-In . SVG Version: 6.00 Build 0)  -->
<!DOCTYPE svg PUBLIC "-//W3C//DTD SVG 1.1//EN" "http://www.w3.org/Graphics/SVG/1.1/DTD/svg11.dtd">
<svg version="1.1" id="レイヤー_1" xmlns="http://www.w3.org/2000/svg" xmlns:xlink="http://www.w3.org/1999/xlink" x="0px"
	 y="0px" width="500px" height="500px" viewBox="0 0 500 500" enable-background="new 0 0 500 500" xml:space="preserve">
<g>
	<circle fill="#FFFFFF" stroke="#000000" stroke-width="18.8992" stroke-miterlimit="10" cx="249.5" cy="252.702" r="237.5"/>
</g>
<g>
	<path d="M167.33,208.936c0-77.453,0-91.354-0.993-107.242c-0.992-16.88-4.965-24.824-21.349-28.3
		c-3.972-0.993-12.412-1.489-16.881-1.489c-1.985,0-3.972-0.993-3.972-2.979c0-2.979,2.482-3.972,7.944-3.974
		c22.342,0,53.621,1.49,56.104,1.49c11.916,0,31.279-1.49,54.117-1.488c81.424,0,99.298,49.649,99.298,74.474
		c0,40.712-23.335,65.04-46.67,89.368c36.74,11.42,85.893,46.67,85.893,104.76c0,53.124-41.705,108.234-126.605,108.234
		c-5.461,0-21.349-0.992-35.747-1.489c-14.398-0.993-28.3-1.489-30.286-1.489c-0.992,0-9.433,0-19.859,0.496
		c-9.93,0-21.349,0.993-28.796,0.993c-5.462,0-7.944-0.993-7.944-3.972c0-1.489,0.993-2.979,3.972-2.979
		c4.469,0,10.427-0.993,14.896-1.986c9.93-1.986,12.412-12.909,14.397-27.307c2.482-20.854,2.482-60.076,2.482-107.739V208.936z
		 M207.05,219.858c0,3.476,0.993,4.468,3.476,5.461c2.979,0.497,11.915,1.986,30.285,1.986c27.804,0,34.755-0.993,45.181-12.909
		c10.427-11.915,17.874-29.789,17.874-50.145c0-41.209-18.37-85.396-67.026-85.396c-5.461,0-15.888,0.497-23.831,2.482
		c-4.469,0.993-5.958,2.482-5.958,5.461V219.858z M207.05,272.486c0,38.229,0,99.795,0.496,107.242
		c1.489,24.328,1.489,31.278,16.881,38.726c13.405,6.455,34.754,7.447,43.691,7.447c26.811,0,70.005-14.397,70.005-70.501
		c0-29.79-9.93-72.984-48.159-99.299c-16.881-11.419-29.293-12.908-41.209-14.397c-6.454-0.993-31.279-0.993-38.727-0.993
		c-1.985,0-2.979,0.993-2.979,3.476V272.486z"/>
</g>
</svg>
